<?xml version="1.0" encoding="utf-8"?>
<!-- Generator: Adobe Illustrator 16.0.0, SVG Export Plug-In . SVG Version: 6.00 Build 0)  -->
<!DOCTYPE svg PUBLIC "-//W3C//DTD SVG 1.1//EN" "http://www.w3.org/Graphics/SVG/1.1/DTD/svg11.dtd">
<svg version="1.1" id="Layer_1" xmlns="http://www.w3.org/2000/svg" xmlns:xlink="http://www.w3.org/1999/xlink" x="0px" y="0px"
	 width="285.58px" height="285.578px" viewBox="0 0 285.58 285.578" enable-background="new 0 0 285.58 285.578"
	 xml:space="preserve">
<g>
	<g>
		<path fill="#125E41" d="M226.205,167.326c0-27.101,21.969-49.074,49.07-49.074V59.37h-58.882c0-27.101-21.969-49.065-49.07-49.065
			c-27.099,0-49.067,21.965-49.067,49.065H59.374v58.882c-27.101,0-49.07,21.973-49.07,49.074c0,27.102,21.969,49.065,49.07,49.065
			v58.882h215.901v-58.882C248.174,216.391,226.205,194.427,226.205,167.326z"/>
	</g>
	<g>
		<path fill="#103E2E" d="M285.58,285.578H49.07V225.8C21.224,220.91,0,196.549,0,167.326c0-29.229,21.224-53.592,49.07-58.483
			V49.065h59.777C113.738,21.222,138.098,0,167.323,0c29.227,0,53.588,21.222,58.479,49.065h59.777v79.49h-10.305
			c-21.376,0-38.766,17.392-38.766,38.77c0,21.373,17.39,38.761,38.766,38.761h10.305V285.578z M69.678,264.968h195.292V225.8
			c-27.846-4.891-49.07-29.251-49.07-58.475c0-29.229,21.225-53.592,49.07-58.483V69.674h-58.882V59.37
			c0-21.373-17.39-38.761-38.766-38.761c-21.374,0-38.763,17.388-38.763,38.761v10.304H69.678v58.882H59.374
			c-21.375,0-38.766,17.392-38.766,38.77c0,21.373,17.39,38.761,38.766,38.761h10.304V264.968z"/>
	</g>
	<g>
		<path fill="#FFFFFF" d="M77.228,88.829h25.305v117.14c-12.982,2.463-22.517,3.45-32.866,3.45
			c-30.893,0-46.999-13.966-46.999-40.76c0-25.796,17.089-42.552,43.547-42.552c4.109,0,7.231,0.321,11.013,1.31V88.829z
			 M77.228,147.795c-2.958-0.991-5.423-1.314-8.542-1.314c-12.821,0-20.218,7.887-20.218,21.69c0,13.476,7.067,20.872,20.048,20.872
			c2.791,0,5.092-0.17,8.711-0.659V147.795z"/>
	</g>
	<g>
		<path fill="#FFFFFF" d="M142.791,127.91v58.667c0,20.21-1.473,29.908-5.913,38.288c-4.109,8.056-9.535,13.147-20.705,18.737
			l-23.5-11.175c11.172-5.262,16.594-9.86,20.048-16.926c3.614-7.235,4.764-15.615,4.764-37.633V127.91H142.791z M117.485,88.966
			h25.306v25.963h-25.306V88.966z"/>
	</g>
</g>
</svg>
